<svg xmlns="http://www.w3.org/2000/svg" data-name="Layer 1" width="727.21" height="478.36"><path d="M368.596 78.348l5.615-22.646-13.84-3.413-5.496 22.032c-3.618-.905-7.337-1.707-11.041-2.594l5.53-22.186-13.772-3.413-5.65 22.612q-4.505-1.024-8.789-2.065l-18.993-4.744-3.67 14.71s10 2.287 10 2.492c5.581 1.4 6.588 5.12 6.418 8.004l-6.434 25.786a10.033 10.033 0 011.433.46l-1.45-.358-9.01 36.111a4.992 4.992 0 01-6.281 3.277h-.034c.136.205-10.017-2.492-10.017-2.492l-6.826 15.769 17.919 4.471c3.413.836 6.603 1.707 9.812 2.526l-5.7 22.885 13.755 3.413 5.649-22.646c3.652.99 7.32 1.928 10.973 2.85l-5.632 22.544 13.772 3.413 5.7-22.851c23.482 4.437 41.163 2.645 48.585-18.585 5.99-17.065-.29-26.963-12.662-33.397 8.993-2.082 15.786-7.987 17.595-20.223l.153-.068c2.491-16.707-10.24-25.684-27.612-31.674zm-3.857 75.806c-4.249 17.065-33.055 7.85-42.39 5.546l7.56-30.326c9.3 2.338 39.25 6.946 34.796 24.78zm4.266-44.371c-3.89 15.564-27.85 7.645-35.632 5.717l6.826-27.493c7.765 1.929 32.817 5.547 28.704 21.776z" fill="#f78b01"/><path d="M339.188 254.483A127.241 127.241 0 11466.429 127.24a127.385 127.385 0 01-127.241 127.242zm0-251.07a123.828 123.828 0 10123.828 123.828A123.968 123.968 0 00339.188 3.413zm-4.27 203.133l-17.085-4.234 5.633-22.547a542.656 542.656 0 01-7.669-1.992l-5.64 22.613-17.067-4.235 5.704-22.9-2.004-.523c-2.003-.524-4.034-1.056-6.15-1.575l-19.879-4.96 8.21-18.964 1.42.378c1.965.521 4.04 1.063 5.77 1.504l-.24-.36 4.54 1.361a3.312 3.312 0 004.196-2.152l8.595-34.46-.008-.003 6.806-27.278c.135-3.202-1.546-5.197-5.136-6.096l-3.83-.96.094-.061a483.88 483.88 0 00-6.229-1.462l-1.697-.387 4.503-18.057 20.651 5.158q3.476.853 7.125 1.684l5.656-22.642 17.084 4.234-5.525 22.168q1.458.34 2.914.673c1.613.37 3.22.739 4.81 1.122l5.495-22.034 17.152 4.23-5.652 22.798c13.547 4.857 30.168 13.588 27.27 33.021l-.139.928-.164.072c-1.692 9.84-6.685 16.39-14.871 19.526 11.95 7.64 15.222 18.628 10.01 33.476-8.23 23.54-29.15 23.535-48.928 19.989zm-12.944-6.724l10.458 2.591 5.678-22.76 1.582.3c27.015 5.104 40.534.042 46.659-17.471 5.096-14.52 1.333-24.47-11.84-31.32l-4.104-2.135 4.506-1.042c9.414-2.18 14.743-8.332 16.292-18.81l.137-.928.14-.062c1.528-13.1-6.723-22.034-26.603-28.889l-1.476-.508 5.579-22.504-10.529-2.596-5.497 22.037-1.656-.414a335.89 335.89 0 00-6.404-1.513c-1.538-.353-3.081-.707-4.621-1.077l-1.675-.401 5.533-22.198-10.46-2.592-5.641 22.58-1.63-.371a539.5 539.5 0 01-8.816-2.071l-17.345-4.334-2.835 11.366a82.002 82.002 0 018.394 2.126c5.152 1.313 7.939 4.862 7.65 9.746l-.048.313-6.048 24.238.02.009-.406 1.539-.08-.02-.031.098.094.024-9.01 36.111a6.72 6.72 0 01-8.457 4.5l.005-.017c-1.305-.176-3.724-.804-8.554-2.085l-5.443 12.574 15.967 3.984c2.127.521 4.176 1.057 6.195 1.586 1.215.318 2.42.634 3.626.942l1.645.419-5.698 22.874 10.443 2.592 5.658-22.682 1.68.455c3.624.982 7.304 1.938 10.938 2.84l1.66.413zm22.622-34.529c-8.259 0-17.314-2.38-23.141-3.91-1.009-.265-1.91-.502-2.677-.692l-1.66-.41 8.386-33.645 1.66.418c.936.236 2.086.494 3.39.788 9.496 2.14 25.39 5.719 31.091 14.973a13.61 13.61 0 011.947 8.966h.136l-.494 2.12a13.426 13.426 0 01-6.313 8.642c-3.404 2.017-7.743 2.75-12.325 2.75zm-23.343-7.492l1.07.28c7.967 2.096 24.546 6.449 32.858 1.526a9.826 9.826 0 004.479-5.618l.228-.914a10.527 10.527 0 00-1.149-8.47c-4.948-8.03-20.552-11.545-28.935-13.433l-1.81-.41zm29.549-37.538c-6.783 0-14.03-1.929-18.718-3.176-.862-.23-1.63-.434-2.283-.596l-1.658-.41 7.65-30.806 1.656.41c.768.191 1.707.399 2.772.634 7.791 1.72 20.83 4.6 25.772 12.612a12.83 12.83 0 011.803 8.48h.132l-.428 2.12a12.857 12.857 0 01-6.016 8.311 21.029 21.029 0 01-10.682 2.421zm-18.527-6.657l.687.183c6.905 1.836 19.758 5.258 26.789 1.113a9.089 9.089 0 003.94-4.638l.397-1.566a9.868 9.868 0 00-1-7.975c-4.184-6.784-16.816-9.573-23.602-11.071-.42-.093-.82-.18-1.198-.266z" fill="#3f3d56"/><path d="M404.68 227.212a10.064 10.064 0 0116.142-.352l33.834-11.5-4.69 17.967-31.41 8.166a10.111 10.111 0 01-13.876-14.28z" fill="#ffb8b8"/><path d="M670.431 476.923a246.303 246.303 0 0120.385-77.735q4.6-10.277 10.128-20.102c.946-1.686-1.644-3.2-2.59-1.515a249.707 249.707 0 00-27.787 76.656q-2.086 11.268-3.136 22.696c-.178 1.922 2.824 1.91 3 0z" fill="#e6e6e6"/><circle cx="708.21" cy="364.897" r="19" fill="#e6e6e6"/><path d="M672.375 477.428a159.788 159.788 0 0113.224-50.43q2.985-6.668 6.57-13.042a.974.974 0 00-1.68-.982 161.996 161.996 0 00-18.026 49.73q-1.353 7.31-2.034 14.724c-.116 1.246 1.831 1.239 1.946 0z" fill="#e6e6e6"/><circle cx="696.883" cy="404.751" r="12.326" fill="#e6e6e6"/><path d="M669.918 476.264a159.788 159.788 0 01-20.59-47.897q-1.747-7.093-2.84-14.324a.974.974 0 00-1.93.26 161.996 161.996 0 0016.374 50.297q3.429 6.597 7.452 12.861c.676 1.054 2.206-.15 1.534-1.197z" fill="#e6e6e6"/><circle cx="644.542" cy="403.886" r="12.326" fill="#e6e6e6"/><path d="M571.31 298.525a10.056 10.056 0 00-4.418-14.773l2.591-35.64-16.203 9.071.024 32.455a10.11 10.11 0 0018.006 8.887z" fill="#ffb8b8"/><path d="M567.28 159.979l4.43 113.418-18-1-4-119 3.796-1.786a9.665 9.665 0 0113.773 8.368z" fill="#f78b01"/><path fill="#ffb8b8" d="M511.612 466.235l-12.26-.001-5.832-47.288 18.094.001-.002 47.288z"/><path d="M490.595 462.731h23.644v14.887h-38.531a14.887 14.887 0 0114.887-14.887z" fill="#2f2e41"/><path fill="#ffb8b8" d="M613.615 451.583l-11.126 5.151-25.16-40.462 16.42-7.601 19.866 42.912z"/><path d="M593.071 457.234l21.456-9.933 6.254 13.51-34.965 16.186a14.887 14.887 0 017.255-19.763zM482.502 311.908l12.644 144.289 17-2 12.564-131.8 69.436 125.8 18-5s-57.936-173.3-62.436-187.8c-4.933-15.896-44-22-44-22l-1.5-1.5c-16.787 22.597-23.511 51.918-21.708 80.01z" fill="#2f2e41"/><circle cx="549.859" cy="114.532" r="24.561" fill="#ffb8b8"/><path d="M565.28 161.922l-17.07 88.97s-25.941-5.18-35.18-11.42c-3.661-2.48-6.98-5.04-9.781-7.36-.55-.45-1.07-.9-1.58-1.33-4.62-3.95-7.46-6.89-7.46-6.89s1.48-7.25 3.29-15.83c2.02-9.61 4.47-20.9 5.72-25.51 2.75-10.11 12.19-21.89 19.55-29.91a21.738 21.738 0 0121.47-6.36l13.32 3.44a10.543 10.543 0 017.72 12.2z" fill="#f78b01"/><path d="M523.999 200.782s-9.18 19.08-22.33 30c-4.62-3.95-7.46-6.89-7.46-6.89s1.48-7.25 3.29-15.83c11.02-5.82 22.38-9.49 26.5-7.28z" opacity=".2"/><path d="M540.28 165.857a16.322 16.322 0 00-2.832-1.124 12.495 12.495 0 00-11.545 2.66l-53.957 39.523-42.915 14.435 7.754 18.34 63.976-15.623 42.43-37.708a12.754 12.754 0 00-2.912-20.503z" fill="#f78b01"/><path d="M551.313 138.867c3.495-5.233 6.254-12.488 2.405-17.466-3.799-4.915-11.292-4.19-17.11-6.365-8.104-3.029-12.804-12.55-11.339-21.076s8.31-15.594 16.464-18.486 17.349-1.952 25.334 1.379c9.829 4.1 18.26 12.03 21.796 22.076s1.646 22.108-5.689 29.83c-7.864 8.278-20.205 10.484-31.623 10.35" fill="#2f2e41"/><path d="M589.881 109.907c1.001 5.59 7.134 8.766 12.771 9.464s11.468-.197 16.955 1.27c9.675 2.584 16.055 11.887 19.567 21.265s5.07 19.498 9.633 28.411 13.41 16.772 23.389 15.938a25.732 25.732 0 01-48.394-1.57c-3.666-11.316.542-24.812-5.869-34.833-3.547-5.545-9.673-8.807-15.58-11.713s-12.105-5.89-16.065-11.147-4.751-13.563.129-17.981" fill="#2f2e41"/><path d="M709.485 478.144H389.19a1.19 1.19 0 110-2.381h320.294a1.19 1.19 0 110 2.381zm-388 0H1.19a1.19 1.19 0 110-2.381h320.294a1.19 1.19 0 010 2.381z" fill="#3f3d56"/><path fill="#a0616a" d="M205.801 465.134l11.721-3.597-8.296-46.919-17.298 5.309 13.873 45.207z"/><path d="M243.465 465.483l-36.835 11.305-4.368-14.232 22.604-6.937a14.887 14.887 0 0118.599 9.864z" fill="#2f2e41"/><path fill="#a0616a" d="M101.803 465.403h12.26l5.832-47.288-18.094.001.002 47.287z"/><path d="M137.707 476.786l-38.53.002-.001-14.887 23.644-.001a14.887 14.887 0 0114.887 14.886z" fill="#2f2e41"/><path d="M104.924 308.326a9.162 9.162 0 01.318-14.046l9.505-119.694 19.33 4.83L118.6 296.174a9.212 9.212 0 01-13.676 12.152z" fill="#a0616a"/><circle cx="150.634" cy="104.601" r="24.561" fill="#a0616a"/><path d="M117.088 176.96c-5.837-8.013-6.017-19.049.27-26.713 4.104-5.002 10.967-9.005 22.426-9.005 30.543 0 42.128 24.224 42.128 24.224s12.638 23.17 5.266 44.235-7.372 23.17-7.372 23.17l-48.448-4.213s8.173-20.886-14.27-51.698z" fill="#ccc"/><path d="M102.148 197.928l10.437-34.146a16.327 16.327 0 0123.097-9.737 16.356 16.356 0 017.465 21.075l-13.269 30.218z" fill="#ccc"/><path d="M178.752 227.605l41.075 212.747-22.117 6.32-53.713-140.077-24.224 143.236-23.17 3.16s-10.164-189.52 34.755-224.333z" fill="#2f2e41"/><path d="M233.959 205.523a10.527 10.527 0 00-.963 1.35l-49.535 2.4-9.538-29.119-16.562 7.872 15.587 43.371 61.263-11.98a10.496 10.496 0 10-.252-13.894z" fill="#a0616a"/><path d="M149.898 168.525a16.326 16.326 0 0117.233-18.202 16.356 16.356 0 0115.308 16.295v33.002l-28.37 4.365z" fill="#ccc"/><path d="M156.036 129.385c-3.686-.016-6.53-3.898-6.365-7.58s2.639-6.923 5.619-9.093 6.474-3.492 9.798-5.088 6.617-3.585 8.669-6.648a14.716 14.716 0 001.023-13.504 21.669 21.669 0 00-9.333-10.224 28.688 28.688 0 00-20.417-3.228c-6.888 1.51-17.154 5.695-21.19 11.478l-4.208 11.458c-4.288 5.156-.968 12.813 1.668 18.98s8.248 10.805 14.58 13.01a35.794 35.794 0 0019.842.596" fill="#2f2e41"/><path d="M133.59 91.224c-1.81-2.899-4.945-4.743-8.187-5.825a25.724 25.724 0 00-33.832 23.003c-.344 6.314 1.634 12.489 2.795 18.705s1.393 13.081-2.034 18.396c-2.61 4.048-6.964 6.596-11.26 8.772-3.582 1.814-7.456 3.516-11.454 3.155s-8.016-3.528-7.91-7.541a32.054 32.054 0 00-2.682 9.08c-.281 3.156.497 6.561 2.776 8.762 3.313 3.199 8.563 2.965 13.116 2.274 9.857-1.494 19.838-4.295 27.625-10.52s12.955-16.475 10.904-26.231c-.856-4.076-2.87-7.796-4.497-11.63s-2.896-8.027-2.15-12.124a14.735 14.735 0 017.493-9.982 19.601 19.601 0 0112.523-1.899c2.8.46 6.294 1.173 7.954-1.127a4.508 4.508 0 00-.093-4.809 13.248 13.248 0 00-3.593-3.56" fill="#2f2e41"/></svg>